# xmcd
#
# Track frame offsets:
#	150
#	38717
#	43957
#	70882
#	91532
#	111990
#	162477
#
# Disc length: 2380 seconds
#
# Revision: 4
# Processed by: cddbd v1.5PL3 Copyright (c) Steve Scherf et al.
# Submitted via: dBpowerAMP V4.0
#
DISCID=58094a07
DTITLE=Miles Davis - Decoy
DYEAR=1900
DGENRE=Jazz
TTITLE0=Decoy
TTITLE1=Robot 415
TTITLE2=Code M.D.
TTITLE3=Freaky Deaky
TTITLE4=What It Is
TTITLE5=That's Right
TTITLE6=That's What Happened
EXTD=
EXTT0=
EXTT1=
EXTT2=
EXTT3=
EXTT4=
EXTT5=
EXTT6=
PLAYORDER=
